# xmcd CD database file
#
# Track frame offsets:
#	151
#	26743
#	48250
#	66536
#	88801
#	119572
#	150543
#	167973
#	194194
#	212514
#	233367
#
# Disc length: 3544 seconds
#
# Revision: 0
# Processed by: cddbd v1.5.2PL0 Copyright (c) Steve Scherf et al.
# Submitted via: CDex 1.51
#
DISCID=9c0dd60b
DTITLE=Son Lewis - Not Fade Away
DYEAR=2010
DGENRE=Blues
TTITLE0=Not Fade Away
TTITLE1=Back Door Man
TTITLE2=Into The Mystic
TTITLE3=I Feel So Bad
TTITLE4=Red House
TTITLE5=Can I Change My Mind
TTITLE6=Peeping and Hiding
TTITLE7=Little Red Rooster
TTITLE8=Got My Mijo Working
TTITLE9=Walking Blues
TTITLE10=Still A Fool
EXTD=YEAR: 2010
EXTT0=
EXTT1=
EXTT2=
EXTT3=
EXTT4=
EXTT5=
EXTT6=
EXTT7=
EXTT8=
EXTT9=
EXTT10=
PLAYORDER=
